<svg width="30" height="30" viewBox="0 0 30 30" fill="none" xmlns="http://www.w3.org/2000/svg">
<g clip-path="url(#clip0_0_173)" filter="url(#filter0_d_0_173)">
<path d="M25.0833 17.4167H22.6423C22.2453 16.0958 21.0317 15.125 19.5833 15.125C18.135 15.125 16.9222 16.0958 16.5244 17.4167H4.91665C4.41065 17.4167 4 17.8273 4 18.3333C4 18.8393 4.41065 19.25 4.91665 19.25H16.5244C16.9213 20.5709 18.135 21.5417 19.5833 21.5417C21.0316 21.5417 22.2444 20.5709 22.6422 19.25H25.0833C25.5902 19.25 26 18.8393 26 18.3333C26 17.8273 25.5903 17.4167 25.0833 17.4167ZM19.5833 19.7083C18.8252 19.7083 18.2083 19.0914 18.2083 18.3333C18.2083 17.5753 18.8252 16.9583 19.5833 16.9583C20.3414 16.9583 20.9583 17.5753 20.9583 18.3333C20.9583 19.0914 20.3414 19.7083 19.5833 19.7083Z" fill="#757575"/>
<path d="M25.0833 2.75003H22.6423C22.2444 1.42912 21.0317 0.458374 19.5833 0.458374C18.135 0.458374 16.9222 1.42912 16.5244 2.75003H4.91665C4.41065 2.75003 4 3.16068 4 3.66668C4 4.17268 4.41065 4.58333 4.91665 4.58333H16.5244C16.9222 5.90428 18.135 6.87503 19.5833 6.87503C21.0317 6.87503 22.2444 5.90428 22.6423 4.58337H25.0833C25.5903 4.58337 26 4.17272 26 3.66672C26 3.16072 25.5903 2.75003 25.0833 2.75003ZM19.5833 5.04168C18.8252 5.04168 18.2083 4.42478 18.2083 3.66668C18.2083 2.90858 18.8252 2.29168 19.5833 2.29168C20.3414 2.29168 20.9583 2.90858 20.9583 3.66668C20.9583 4.42478 20.3414 5.04168 19.5833 5.04168Z" fill="#757575"/>
<path d="M25.0833 10.0833H13.4756C13.0778 8.76244 11.865 7.79169 10.4167 7.79169C8.96839 7.79169 7.7556 8.76244 7.35779 10.0833H4.91665C4.41065 10.0833 4 10.494 4 11C4 11.506 4.41065 11.9166 4.91665 11.9166H7.35775C7.7556 13.2376 8.96835 14.2083 10.4167 14.2083C11.865 14.2083 13.0778 13.2376 13.4756 11.9166H25.0833C25.5902 11.9166 26 11.506 26 11C26 10.494 25.5903 10.0833 25.0833 10.0833ZM10.4167 12.375C9.65855 12.375 9.04165 11.7581 9.04165 11C9.04165 10.2419 9.65855 9.62499 10.4167 9.62499C11.1747 9.62499 11.7917 10.2419 11.7917 11C11.7917 11.7581 11.1747 12.375 10.4167 12.375Z" fill="#757575"/>
</g>
<defs>
<filter id="filter0_d_0_173" x="0" y="0" width="30" height="30" filterUnits="userSpaceOnUse" color-interpolation-filters="sRGB">
<feFlood flood-opacity="0" result="BackgroundImageFix"/>
<feColorMatrix in="SourceAlpha" type="matrix" values="0 0 0 0 0 0 0 0 0 0 0 0 0 0 0 0 0 0 127 0" result="hardAlpha"/>
<feOffset dy="4"/>
<feGaussianBlur stdDeviation="2"/>
<feComposite in2="hardAlpha" operator="out"/>
<feColorMatrix type="matrix" values="0 0 0 0 0 0 0 0 0 0 0 0 0 0 0 0 0 0 0.25 0"/>
<feBlend mode="normal" in2="BackgroundImageFix" result="effect1_dropShadow_0_173"/>
<feBlend mode="normal" in="SourceGraphic" in2="effect1_dropShadow_0_173" result="shape"/>
</filter>
<clipPath id="clip0_0_173">
<rect width="22" height="22" fill="white" transform="translate(4)"/>
</clipPath>
</defs>
</svg>
